<?xml version="1.0" encoding="iso-8859-1"?>
<!-- Generator: Adobe Illustrator 19.0.0, SVG Export Plug-In . SVG Version: 6.00 Build 0)  -->
<svg version="1.1" id="Capa_1" xmlns="http://www.w3.org/2000/svg" xmlns:xlink="http://www.w3.org/1999/xlink" x="0px" y="0px"
	 viewBox="0 0 511 511" style="enable-background:new 0 0 511 511;" xml:space="preserve">
<path d="M503.5,431.999h-11.365l-56.99-113.981c-4.117-8.235-11.602-14.239-20.535-16.472l-48.903-12.226
	c-2.392-5.479-7.857-9.321-14.207-9.321H327v-9h48.5c4.142,0,7.5-3.358,7.5-7.5v-28.468c0-10.13-6.458-19.09-16.069-22.294
	l-31.19-10.397l-9.701-14.551c-3.99-24.379-20.283-45.119-43.77-54.608c-1.015-0.409-2.066-0.575-3.093-0.536
	c-1.352-7.228-7.689-12.646-15.221-12.646H263v-10.234c9.29-3.138,16-11.93,16-22.266c0-12.958-10.542-23.5-23.5-23.5
	S232,74.541,232,87.499c0,10.336,6.71,19.128,16,22.266v10.234h-0.957c-5.9,0-11.061,3.331-13.677,8.245
	c-0.08-0.021-0.158-0.048-0.239-0.066l-59.471-13.216c-3.919-0.871-6.656-4.283-6.656-8.298v-4.574
	c13.759-3.374,24-15.806,24-30.591c0-4.142-3.358-7.5-7.5-7.5h-48c-4.142,0-7.5,3.358-7.5,7.5c0,14.785,10.241,27.216,24,30.591
	v4.574c0,11.099,7.567,20.533,18.402,22.94l45.748,10.166c-16.656,10.927-27.958,28.278-31.19,48.018l-10.326,15.489
	c-4.34,6.509-6.634,14.086-6.634,21.911v38.311c0,4.142,3.358,7.5,7.5,7.5h8.5v9h-24.5c-6.351,0-11.815,3.842-14.207,9.321
	L96.39,301.546c-8.933,2.233-16.417,8.237-20.534,16.472l-56.99,113.981H7.5c-4.142,0-7.5,3.358-7.5,7.5s3.358,7.5,7.5,7.5h15.968
	c0.009,0,0.017,0.001,0.026,0.001c0.007,0,0.014-0.001,0.021-0.001H47.5c4.142,0,7.5-3.358,7.5-7.5s-3.358-7.5-7.5-7.5H35.635
	l24.688-49.376l91.49-7.624H168v8.5c0,8.547,6.953,15.5,15.5,15.5H248v33h-16.5c-4.142,0-7.5,3.358-7.5,7.5s3.358,7.5,7.5,7.5h48
	c4.142,0,7.5-3.358,7.5-7.5s-3.358-7.5-7.5-7.5H263v-33h64.5c8.547,0,15.5-6.953,15.5-15.5v-8.5h16.188l91.49,7.624l24.688,49.376
	H463.5c-4.142,0-7.5,3.358-7.5,7.5s3.358,7.5,7.5,7.5h23.985c0.007,0,0.014,0.001,0.021,0.001c0.009,0,0.017-0.001,0.026-0.001
	H503.5c4.142,0,7.5-3.358,7.5-7.5S507.642,431.999,503.5,431.999z M255.5,78.999c4.687,0,8.5,3.813,8.5,8.5s-3.813,8.5-8.5,8.5
	s-8.5-3.813-8.5-8.5S250.813,78.999,255.5,78.999z M144.805,78.999h29.39c-2.735,5.338-8.295,9-14.695,9
	S147.541,84.338,144.805,78.999z M367,305.105l41.628,10.407L367,351.193V305.105z M312,279.999h-33v-9h0.5H312V279.999z
	 M247,279.999v-9h17v9H247z M224.955,247.039c-13.988-9.003-23.262-23.689-25.453-40.039h27.808L224.955,247.039z M242.336,206.999
	h26.327l2.882,49h-32.092L242.336,206.999z M328,225.188v30.811h-28.691c13.284-10.313,22.49-24.97,26.048-41.309l0.332,0.111
	C327.207,218.038,328,221.57,328,225.188z M286.045,247.038l-2.355-40.039h27.809C309.307,223.349,300.032,238.035,286.045,247.038z
	 M368,235.031v20.968h-25v-30.811c0-1.587-0.119-3.159-0.306-4.719l19.493,6.497C365.664,228.126,368,231.367,368,235.031z
	 M311.5,191.999h-28.693l-2.547-43.3C297.411,157.038,309.03,173.265,311.5,191.999z M247.043,134.999h16.914
	c0.265,0,0.484,0.207,0.5,0.471l3.325,56.529h-24.563l3.325-56.529C246.559,135.206,246.778,134.999,247.043,134.999z
	 M230.739,148.7l-2.547,43.299h-28.692C201.97,173.268,213.59,157.039,230.739,148.7z M183,225.188
	c0-3.803,0.886-7.506,2.559-10.876c3.497,16.491,12.745,31.294,26.132,41.687H183V225.188z M199,270.999h32.5h0.5v9h-33V270.999z
	 M144,351.193l-41.628-35.681L144,305.105V351.193z M89.272,324.726c0.102-0.203,0.226-0.391,0.335-0.589
	c0.297,0.377,0.633,0.732,1.012,1.057l42.375,36.322l-64.818,5.402L89.272,324.726z M159,295.499c0-0.276,0.224-0.5,0.5-0.5H248v65
	h-89V295.499z M183.5,383.999c-0.276,0-0.5-0.224-0.5-0.5v-8.5h65v9H183.5z M328,383.499c0,0.276-0.224,0.5-0.5,0.5H263v-9h65
	V383.499z M352,359.999h-89v-65h88.5c0.276,0,0.5,0.224,0.5,0.5V359.999z M378.005,361.515l42.375-36.322
	c0.378-0.324,0.714-0.68,1.012-1.057c0.11,0.198,0.234,0.386,0.336,0.589l21.095,42.191L378.005,361.515z"/>
<g>
</g>
<g>
</g>
<g>
</g>
<g>
</g>
<g>
</g>
<g>
</g>
<g>
</g>
<g>
</g>
<g>
</g>
<g>
</g>
<g>
</g>
<g>
</g>
<g>
</g>
<g>
</g>
<g>
</g>
</svg>
